<?xml version="1.0" standalone="no"?>
<!DOCTYPE svg PUBLIC "-//W3C//DTD SVG 20010904//EN"
 "http://www.w3.org/TR/2001/REC-SVG-20010904/DTD/svg10.dtd">
<svg version="1.0" xmlns="http://www.w3.org/2000/svg"
 width="1438.000000pt" height="684.000000pt" viewBox="0 0 1438.000000 684.000000"
 preserveAspectRatio="xMidYMid meet">
<metadata>
Created by potrace 1.16, written by Peter Selinger 2001-2019
</metadata>
<g transform="translate(0.000000,684.000000) scale(0.100000,-0.100000)"
fill="#000000" stroke="none">
<path d="M0 3420 l0 -3420 7190 0 7190 0 0 3420 0 3420 -7190 0 -7190 0 0
-3420z m3000 1320 l0 -400 -562 0 -563 1 -225 391 c-124 215 -226 395 -228
400 -2 4 352 8 787 8 l791 0 0 -400z m1111 384 c519 -72 928 -328 1161 -727
23 -39 57 -107 75 -149 l32 -78 -487 -2 -487 -3 -45 33 c-58 43 -151 87 -226
106 -110 28 -243 36 -651 36 l-403 0 0 400 0 400 460 0 c362 0 483 -3 571 -16z
m3016 -193 c298 -78 464 -410 353 -703 l-21 -58 -162 0 -161 0 31 28 c102 94
128 245 64 370 -37 71 -131 143 -209 158 l-32 7 0 -282 0 -281 -120 0 -120 0
0 390 0 390 153 0 c117 0 170 -4 224 -19z m1109 -371 l173 -385 -184 -3 c-102
-1 -268 -1 -369 0 l-184 3 164 365 c90 201 168 375 174 388 7 16 17 22 32 20
17 -2 51 -69 194 -388z m1094 280 l0 -110 -130 0 -130 0 0 -280 0 -280 -125 0
-125 0 0 280 0 280 -130 0 -130 0 0 110 0 110 385 0 385 0 0 -110z m746 -280
l173 -385 -184 -3 c-102 -1 -268 -1 -369 0 l-184 3 164 365 c90 201 168 375
174 388 7 16 17 22 32 20 17 -2 51 -69 194 -388z m-7074 -897 l4 -488 26 -96
c122 -451 467 -684 944 -640 66 6 146 18 179 27 131 34 249 109 325 205 l40
51 -2 -498 -3 -497 -55 -19 c-185 -64 -398 -92 -650 -85 -272 7 -439 40 -675
134 -221 88 -406 211 -570 377 -261 265 -414 591 -465 996 -18 134 -15 402 5
535 18 121 64 305 96 387 12 29 25 63 30 76 l9 22 379 0 380 0 3 -487z m269
445 c-61 -60 -115 -133 -156 -212 l-35 -67 0 160 0 161 117 0 117 0 -43 -42z
m2158 -105 c6 -21 11 -48 11 -60 l0 -23 -429 0 -429 0 -35 60 -36 60 454 0
454 0 10 -37z m1889 9 c-18 -16 -55 -40 -83 -55 -98 -50 -137 -57 -317 -57
l-168 0 0 70 0 70 300 0 301 0 -33 -28z m529 -42 l-32 -70 -133 0 -132 0 14
33 c7 17 22 49 32 70 l18 37 132 0 132 0 -31 -70z m653 4 c16 -37 30 -68 30
-70 0 -2 -60 -4 -132 -4 l-133 0 -22 53 c-41 96 -52 87 96 87 l131 0 30 -66z
m570 -4 l0 -70 -125 0 -125 0 0 70 0 70 125 0 125 0 0 -70z m617 0 l-32 -70
-133 0 -132 0 14 33 c7 17 22 49 32 70 l18 37 132 0 132 0 -31 -70z m653 4
c16 -37 30 -68 30 -70 0 -2 -60 -4 -132 -4 l-133 0 -22 53 c-41 96 -52 87 96
87 l131 0 30 -66z m-5820 -734 l0 -380 -330 0 -330 0 0 380 0 380 330 0 330 0
0 -380z m975 371 c10 -17 6 -483 -5 -581 -26 -228 -77 -406 -175 -605 -106
-217 -260 -393 -457 -525 -90 -60 -217 -130 -238 -130 -7 0 -10 300 -10 925
l0 925 439 0 c264 0 442 -4 446 -9z m5665 -906 l0 -725 -2520 0 -2520 0 0 725
0 725 2520 0 2520 0 0 -725z"/>
<path d="M6390 3035 l0 -95 199 0 c214 0 240 -4 309 -53 52 -38 102 -130 102
-191 0 -94 -66 -198 -155 -241 -33 -16 -61 -20 -155 -20 l-115 0 -3 188 -2
187 -90 0 -90 0 0 -280 0 -280 203 0 c221 0 281 9 369 57 67 37 143 121 180
199 43 92 50 218 18 314 -42 126 -118 213 -234 266 -68 31 -178 43 -393 44
l-143 0 0 -95z"/>
<path d="M7320 3035 l0 -95 390 0 390 0 0 95 0 95 -390 0 -390 0 0 -95z"/>
<path d="M8240 3035 l0 -95 390 0 390 0 0 95 0 95 -390 0 -390 0 0 -95z"/>
<path d="M9160 3035 l0 -95 199 0 c214 0 240 -4 309 -53 52 -38 102 -130 102
-191 0 -94 -66 -198 -155 -241 -33 -16 -61 -20 -155 -20 l-115 0 -3 188 -2
187 -90 0 -90 0 0 -280 0 -280 203 0 c221 0 281 9 369 57 67 37 143 121 180
199 43 92 50 218 18 314 -42 126 -118 213 -234 266 -68 31 -178 43 -393 44
l-143 0 0 -95z"/>
<path d="M10304 3121 c-205 -34 -285 -302 -132 -448 65 -62 105 -73 281 -73
175 0 207 -8 225 -58 7 -20 6 -37 -3 -60 -18 -42 -60 -52 -223 -52 -128 0
-134 1 -157 25 -14 13 -25 29 -25 35 0 6 -34 10 -90 10 -87 0 -90 -1 -90 -22
2 -70 67 -164 139 -200 43 -22 57 -23 246 -23 l200 0 53 29 c93 52 137 129
136 236 0 81 -29 146 -87 195 -62 53 -116 65 -292 65 -137 0 -155 2 -178 20
-13 11 -28 31 -31 45 -7 29 15 79 39 89 9 3 90 6 179 6 145 0 165 -2 179 -18
10 -10 17 -24 17 -30 0 -8 28 -12 91 -12 l92 0 -6 41 c-7 55 -53 127 -102 161
-22 15 -64 32 -94 38 -59 11 -302 12 -367 1z"/>
<path d="M7320 2530 l0 -280 390 0 390 0 0 90 0 90 -297 2 -298 3 -3 98 -3 97
261 0 260 0 0 90 0 90 -350 0 -350 0 0 -280z"/>
<path d="M8240 2530 l0 -280 390 0 390 0 0 90 0 90 -297 2 -298 3 -3 98 -3 97
261 0 260 0 0 90 0 90 -350 0 -350 0 0 -280z"/>
</g>
</svg>
